<?xml version="1.0" encoding="utf-8"?>
<!-- Generator: Adobe Illustrator 12.0.0, SVG Export Plug-In . SVG Version: 6.00 Build 51448)  -->
<!DOCTYPE svg PUBLIC "-//W3C//DTD SVG 1.1//EN" "http://www.w3.org/Graphics/SVG/1.1/DTD/svg11.dtd" [
	<!ENTITY ns_svg "http://www.w3.org/2000/svg">
	<!ENTITY ns_xlink "http://www.w3.org/1999/xlink">
]>
<svg  version="1.1" xmlns="&ns_svg;" xmlns:xlink="&ns_xlink;" width="841.89" height="1031.618" viewBox="0 0 841.89 1031.618"
	 overflow="visible" enable-background="new 0 0 841.89 1031.618" xml:space="preserve">
<g id="Ebene_4" display="none">
	<line display="inline" fill="none" stroke="#000000" x1="100" y1="0.015" x2="100" y2="600.015"/>
	<path display="inline" fill="none" stroke="#000000" d="M516.795,1031.618"/>
	<path display="inline" fill="none" stroke="#000000" d="M100,600.015"/>
	<line display="inline" fill="none" stroke="#000000" x1="200" y1="0.015" x2="200" y2="575.015"/>
	<line display="inline" fill="none" stroke="#000000" x1="300" y1="0.015" x2="300" y2="575.015"/>
	<line display="inline" fill="none" stroke="#000000" x1="400" y1="0.015" x2="400" y2="600.015"/>
	<line display="inline" fill="none" stroke="#000000" x1="500" y1="0.015" x2="500" y2="575.015"/>
	<line display="inline" fill="none" stroke="#000000" x1="600" y1="0.015" x2="600" y2="575.015"/>
	<line display="inline" fill="none" stroke="#000000" x1="700" y1="0.015" x2="700" y2="575.015"/>
	<line display="inline" fill="none" stroke="#000000" x1="800" y1="0.015" x2="800" y2="575.015"/>
	<line display="inline" fill="none" stroke="#000000" x1="500" y1="0.015" x2="500" y2="575.015"/>
	<line display="inline" fill="none" stroke="#000000" x1="600" y1="0.015" x2="600" y2="575.015"/>
	<line display="inline" fill="none" stroke="#000000" x1="75" y1="550.015" x2="809.936" y2="550.015"/>
	<line display="inline" fill="none" stroke="#000000" x1="75" y1="450.015" x2="841.89" y2="450.015"/>
	<line display="inline" fill="none" stroke="#000000" x1="75" y1="350.015" x2="809.936" y2="350.015"/>
	<line display="inline" fill="none" stroke="#000000" x1="75" y1="250.015" x2="809.936" y2="250.015"/>
	<line display="inline" fill="none" stroke="#000000" x1="75" y1="150.015" x2="809.936" y2="150.015"/>
	<line display="inline" fill="none" stroke="#000000" x1="75" y1="50.015" x2="809.936" y2="50.015"/>
	<line display="inline" fill="none" stroke="#000000" x1="75" y1="350.015" x2="809.936" y2="350.015"/>
	<line display="inline" fill="none" stroke="#000000" x1="75" y1="250.015" x2="809.936" y2="250.015"/>
	<circle display="inline" fill="none" stroke="#000000" cx="350" cy="100.015" r="50"/>
	<circle display="inline" fill="none" stroke="#000000" cx="250" cy="100.015" r="50"/>
	<circle display="inline" fill="none" stroke="#000000" cx="150" cy="100.015" r="50"/>
	<circle display="inline" fill="none" stroke="#000000" cx="450" cy="100.015" r="50"/>
	<circle display="inline" fill="none" stroke="#000000" cx="550" cy="100.015" r="50"/>
	<circle display="inline" fill="none" stroke="#000000" cx="650" cy="100.015" r="50"/>
	<circle display="inline" fill="none" stroke="#000000" cx="750" cy="100.015" r="50"/>
	<circle display="inline" fill="none" stroke="#000000" cx="350" cy="200.015" r="50"/>
	<circle display="inline" fill="none" stroke="#000000" cx="250" cy="200.015" r="50"/>
	<circle display="inline" fill="none" stroke="#000000" cx="150" cy="200.015" r="50"/>
	<circle display="inline" fill="none" stroke="#000000" cx="450" cy="200.015" r="50"/>
	<circle display="inline" fill="none" stroke="#000000" cx="550" cy="200.015" r="50"/>
	<circle display="inline" fill="none" stroke="#000000" cx="650" cy="200.015" r="50"/>
	<circle display="inline" fill="none" stroke="#000000" cx="750" cy="200.015" r="50"/>
	<circle display="inline" fill="none" stroke="#000000" cx="350" cy="300.015" r="50"/>
	<circle display="inline" fill="none" stroke="#000000" cx="250" cy="300.015" r="50"/>
	<circle display="inline" fill="none" stroke="#000000" cx="150" cy="300.015" r="50"/>
	<circle display="inline" fill="#28E207" stroke="#000000" cx="450" cy="300.015" r="50"/>
	<circle display="inline" fill="none" stroke="#000000" cx="550" cy="300.015" r="50"/>
	<circle display="inline" fill="none" stroke="#000000" cx="650" cy="300.015" r="50"/>
	<circle display="inline" fill="none" stroke="#000000" cx="750" cy="300.015" r="50"/>
	<circle display="inline" fill="none" stroke="#000000" cx="350" cy="400.015" r="50"/>
	<circle display="inline" fill="none" stroke="#000000" cx="250" cy="400.015" r="50"/>
	<circle display="inline" fill="none" stroke="#000000" cx="150" cy="400.015" r="50"/>
	<circle display="inline" fill="none" stroke="#000000" cx="450" cy="400.015" r="50"/>
	<circle display="inline" fill="none" stroke="#000000" cx="550" cy="400.015" r="50"/>
	<circle display="inline" fill="none" stroke="#000000" cx="650" cy="400.015" r="50"/>
	<circle display="inline" fill="none" stroke="#000000" cx="750" cy="400.015" r="50"/>
	<circle display="inline" fill="none" stroke="#000000" cx="350" cy="500.015" r="50"/>
	<circle display="inline" fill="none" stroke="#000000" cx="250" cy="500.015" r="50"/>
	<circle display="inline" fill="none" stroke="#000000" cx="150" cy="500.015" r="50"/>
	<circle display="inline" fill="none" stroke="#000000" cx="450" cy="500.015" r="50"/>
	<circle display="inline" fill="none" stroke="#000000" cx="550" cy="500.015" r="50"/>
	<circle display="inline" fill="none" stroke="#000000" cx="650" cy="500.015" r="50"/>
	<circle display="inline" fill="none" stroke="#000000" cx="750" cy="500.015" r="50"/>
	<circle display="inline" fill="none" stroke="#000000" cx="300.5" cy="249.515" r="50"/>
	<circle display="inline" fill="none" stroke="#000000" cx="200.5" cy="249.515" r="50"/>
	<circle display="inline" fill="none" stroke="#000000" cx="100.5" cy="249.515" r="50"/>
	<circle display="inline" fill="none" stroke="#000000" cx="400.5" cy="249.515" r="50"/>
	<circle display="inline" fill="none" stroke="#000000" cx="500.5" cy="249.515" r="50"/>
	<circle display="inline" fill="none" stroke="#000000" cx="600.5" cy="249.515" r="50"/>
	<circle display="inline" fill="none" stroke="#000000" cx="700.5" cy="249.515" r="50"/>
	<circle display="inline" fill="none" stroke="#000000" cx="300.5" cy="150.015" r="50"/>
	<circle display="inline" fill="none" stroke="#000000" cx="200.5" cy="150.015" r="50"/>
	<circle display="inline" fill="none" stroke="#000000" cx="100.5" cy="150.015" r="50"/>
	<circle display="inline" fill="none" stroke="#000000" cx="400.5" cy="150.015" r="50"/>
	<circle display="inline" fill="none" stroke="#000000" cx="500.5" cy="150.015" r="50"/>
	<circle display="inline" fill="none" stroke="#000000" cx="600.5" cy="150.015" r="50"/>
	<circle display="inline" fill="none" stroke="#000000" cx="700.5" cy="150.015" r="50"/>
	<circle display="inline" fill="none" stroke="#000000" cx="300.5" cy="350.015" r="50"/>
	<circle display="inline" fill="none" stroke="#000000" cx="200.5" cy="350.015" r="50"/>
	<circle display="inline" fill="none" stroke="#000000" cx="100.5" cy="350.015" r="50"/>
	<circle display="inline" fill="none" stroke="#000000" cx="400.5" cy="350.015" r="50"/>
	<circle display="inline" fill="none" stroke="#000000" cx="500.5" cy="350.015" r="50"/>
	<circle display="inline" fill="none" stroke="#000000" cx="600.5" cy="350.015" r="50"/>
	<circle display="inline" fill="none" stroke="#000000" cx="700.5" cy="350.015" r="50"/>
	<circle display="inline" fill="none" stroke="#000000" cx="300.5" cy="450.015" r="50"/>
	<circle display="inline" fill="none" stroke="#000000" cx="200.5" cy="450.015" r="50"/>
	<circle display="inline" fill="none" stroke="#000000" cx="100.5" cy="450.015" r="50"/>
	<circle display="inline" fill="none" stroke="#000000" cx="400.5" cy="450.015" r="50"/>
	<circle display="inline" fill="none" stroke="#000000" cx="500.5" cy="450.015" r="50"/>
	<circle display="inline" fill="none" stroke="#000000" cx="600.5" cy="450.015" r="50"/>
	<circle display="inline" fill="none" stroke="#000000" cx="700.5" cy="450.015" r="50"/>
</g>
<g id="Ebene_2" display="none">
	<rect x="400" y="250.015" display="inline" fill="#F98A8A" width="100" height="100"/>
	<circle display="inline" fill="#8BF78B" cx="400" cy="350.015" r="50"/>
	<circle display="inline" fill="#8BF78B" cx="400" cy="250.015" r="50"/>
	<circle display="inline" fill="#8CCAF4" cx="450" cy="300.015" r="50"/>
	<circle display="inline" fill="#8BF78B" cx="500" cy="350.015" r="50"/>
	<circle display="inline" fill="#8BF78B" cx="500" cy="250.015" r="50"/>
	<g id="Ebene_3" display="inline">
	</g>
</g>
<g id="collection">
	<path fill="#8CCAF4" d="M50,0.015L50,0.015c-27.614,0-50,22.386-50,50C27.613,50.015,50,27.63,50,0.015z"/>
	<path fill="#8CCAF4" d="M100,50.015L100,50.015c-27.614,0-50,22.386-50,50C77.613,100.015,100,77.63,100,50.015z"/>
	<path fill="#8CCAF4" d="M100,50.015L100,50.015c0-27.614-22.386-50-50-50C50,27.628,72.385,50.015,100,50.015z"/>
	<path fill="#8CCAF4" d="M50,100.015L50,100.015c0-27.614-22.386-50-50-50C0,77.628,22.385,100.015,50,100.015z"/>
	<path fill="#8BF78B" d="M49.999,0.015H0v50C0,22.4,22.386,0.015,49.999,0.015z"/>
	<path fill="#8BF78B" d="M50.001,100.015H100v-50C100,77.629,77.614,100.015,50.001,100.015z"/>
	<path fill="#8BF78B" d="M0,50.016v49.999h50C22.386,100.015,0,77.629,0,50.016z"/>
	<path fill="#8BF78B" d="M100,50.014V0.015H50C77.614,0.015,100,22.4,100,50.014z"/>
	<path fill="#F48CC0" d="M100,49.999L100,49.999L100,49.999L100,49.999 M50.001,0 M0.001,50.001
		C27.608,50.001,49.99,72.376,50,99.98C50.011,72.375,72.393,50,99.999,50H100C72.385,49.999,50.001,27.612,50.001,0H50
		C50,27.615,27.613,50,0.001,50.001L0.001,50.001 M50.001,100.001L50.001,100.001c0-0.008-0.001-0.014-0.001-0.021
		C50,99.987,50,99.993,50.001,100.001"/>
	<path fill="#8CCAF4" d="M150,0.015L150,0.015c-27.614,0-50,22.386-50,50C127.613,50.015,150,27.63,150,0.015z"/>
	<path fill="#8CCAF4" d="M200,50.015L200,50.015c-27.614,0-50,22.386-50,50C177.613,100.015,200,77.63,200,50.015z"/>
	<path fill="#8CCAF4" d="M200,50.015L200,50.015c0-27.614-22.386-50-50-50C150,27.628,172.385,50.015,200,50.015z"/>
	<path fill="#8CCAF4" d="M150,100.015L150,100.015c0-27.614-22.386-50-50-50C100,77.628,122.385,100.015,150,100.015z"/>
	<path fill="#8BF78B" d="M149.999,0.015H100v50C100,22.4,122.386,0.015,149.999,0.015z"/>
	<path fill="#8BF78B" d="M150.001,100.015H200v-50C200,77.629,177.614,100.015,150.001,100.015z"/>
	<path fill="#8BF78B" d="M100,50.016v49.999h50C122.386,100.015,100,77.629,100,50.016z"/>
	<path fill="#8BF78B" d="M200,50.014V0.015h-50C177.614,0.015,200,22.4,200,50.014z"/>
	<path fill="#F48CC0" d="M200,49.999L200,49.999L200,49.999L200,49.999 M150.001,0 M100.001,50.001
		c27.607,0,49.989,22.375,49.999,49.979C150.011,72.375,172.393,50,199.999,50H200c-27.615-0.001-49.999-22.388-49.999-50H150
		C150,27.615,127.613,50,100.001,50.001L100.001,50.001 M150.001,100.001L150.001,100.001c0-0.008-0.001-0.014-0.001-0.021
		C150,99.987,150,99.993,150.001,100.001"/>
	<path fill="#8CCAF4" d="M250,0.015L250,0.015c-27.614,0-50,22.386-50,50C227.613,50.015,250,27.63,250,0.015z"/>
	<path fill="#8CCAF4" d="M300,50.015L300,50.015c-27.614,0-50,22.386-50,50C277.613,100.015,300,77.63,300,50.015z"/>
	<path fill="#8CCAF4" d="M300,50.015L300,50.015c0-27.614-22.386-50-50-50C250,27.628,272.385,50.015,300,50.015z"/>
	<path fill="#8CCAF4" d="M250,100.015L250,100.015c0-27.614-22.386-50-50-50C200,77.628,222.385,100.015,250,100.015z"/>
	<path fill="#8BF78B" d="M249.999,0.015H200v50C200,22.4,222.386,0.015,249.999,0.015z"/>
	<path fill="#8BF78B" d="M250.001,100.015H300v-50C300,77.629,277.614,100.015,250.001,100.015z"/>
	<path fill="#8BF78B" d="M200,50.016v49.999h50C222.386,100.015,200,77.629,200,50.016z"/>
	<path fill="#8BF78B" d="M300,50.014V0.015h-50C277.614,0.015,300,22.4,300,50.014z"/>
	<path fill="#F48CC0" d="M300,49.999L300,49.999L300,49.999L300,49.999 M250.001,0 M200.001,50.001
		c27.607,0,49.989,22.375,49.999,49.979C250.011,72.375,272.393,50,299.999,50H300c-27.615-0.001-49.999-22.388-49.999-50H250
		C250,27.615,227.613,50,200.001,50.001L200.001,50.001 M250.001,100.001L250.001,100.001c0-0.008-0.001-0.014-0.001-0.021
		C250,99.987,250,99.993,250.001,100.001"/>
	<path fill="#8CCAF4" d="M350,0.015L350,0.015c-27.614,0-50,22.386-50,50C327.613,50.015,350,27.63,350,0.015z"/>
	<path fill="#8CCAF4" d="M400,50.015L400,50.015c-27.614,0-50,22.386-50,50C377.613,100.015,400,77.63,400,50.015z"/>
	<path fill="#8CCAF4" d="M400,50.015L400,50.015c0-27.614-22.386-50-50-50C350,27.628,372.385,50.015,400,50.015z"/>
	<path fill="#8CCAF4" d="M350,100.015L350,100.015c0-27.614-22.386-50-50-50C300,77.628,322.385,100.015,350,100.015z"/>
	<path fill="#8BF78B" d="M349.999,0.015H300v50C300,22.4,322.386,0.015,349.999,0.015z"/>
	<path fill="#8BF78B" d="M350.001,100.015H400v-50C400,77.629,377.614,100.015,350.001,100.015z"/>
	<path fill="#8BF78B" d="M300,50.016v49.999h50C322.386,100.015,300,77.629,300,50.016z"/>
	<path fill="#8BF78B" d="M400,50.014V0.015h-50C377.614,0.015,400,22.4,400,50.014z"/>
	<path fill="#F48CC0" d="M400,49.999L400,49.999L400,49.999L400,49.999 M350.001,0 M300.001,50.001
		c27.607,0,49.989,22.375,49.999,49.979C350.011,72.375,372.393,50,399.999,50H400c-27.615-0.001-49.999-22.388-49.999-50H350
		C350,27.615,327.613,50,300.001,50.001L300.001,50.001 M350.001,100.001L350.001,100.001c0-0.008-0.001-0.014-0.001-0.021
		C350,99.987,350,99.993,350.001,100.001"/>
	<path fill="#8CCAF4" d="M450,0.015L450,0.015c-27.614,0-50,22.386-50,50C427.613,50.015,450,27.63,450,0.015z"/>
	<path fill="#8CCAF4" d="M500,50.015L500,50.015c-27.614,0-50,22.386-50,50C477.613,100.015,500,77.63,500,50.015z"/>
	<path fill="#8CCAF4" d="M500,50.015L500,50.015c0-27.614-22.386-50-50-50C450,27.628,472.385,50.015,500,50.015z"/>
	<path fill="#8CCAF4" d="M450,100.015L450,100.015c0-27.614-22.386-50-50-50C400,77.628,422.385,100.015,450,100.015z"/>
	<path fill="#8BF78B" d="M449.999,0.015H400v50C400,22.4,422.386,0.015,449.999,0.015z"/>
	<path fill="#8BF78B" d="M450.001,100.015H500v-50C500,77.629,477.614,100.015,450.001,100.015z"/>
	<path fill="#8BF78B" d="M400,50.016v49.999h50C422.386,100.015,400,77.629,400,50.016z"/>
	<path fill="#8BF78B" d="M500,50.014V0.015h-50C477.614,0.015,500,22.4,500,50.014z"/>
	<path fill="#F48CC0" d="M500,49.999L500,49.999L500,49.999L500,49.999 M450.001,0 M400.001,50.001
		c27.607,0,49.989,22.375,49.999,49.979C450.011,72.375,472.393,50,499.999,50H500c-27.615-0.001-49.999-22.388-49.999-50H450
		C450,27.615,427.613,50,400.001,50.001L400.001,50.001 M450.001,100.001L450.001,100.001c0-0.008-0.001-0.014-0.001-0.021
		C450,99.987,450,99.993,450.001,100.001"/>
	<path fill="#8CCAF4" d="M550,0.015L550,0.015c-27.614,0-50,22.386-50,50C527.613,50.015,550,27.63,550,0.015z"/>
	<path fill="#8CCAF4" d="M600,50.015L600,50.015c-27.614,0-50,22.386-50,50C577.613,100.015,600,77.63,600,50.015z"/>
	<path fill="#8CCAF4" d="M600,50.015L600,50.015c0-27.614-22.386-50-50-50C550,27.628,572.385,50.015,600,50.015z"/>
	<path fill="#8CCAF4" d="M550,100.015L550,100.015c0-27.614-22.386-50-50-50C500,77.628,522.385,100.015,550,100.015z"/>
	<path fill="#8BF78B" d="M549.999,0.015H500v50C500,22.4,522.386,0.015,549.999,0.015z"/>
	<path fill="#8BF78B" d="M550.001,100.015H600v-50C600,77.629,577.614,100.015,550.001,100.015z"/>
	<path fill="#8BF78B" d="M500,50.016v49.999h50C522.386,100.015,500,77.629,500,50.016z"/>
	<path fill="#8BF78B" d="M600,50.014V0.015h-50C577.614,0.015,600,22.4,600,50.014z"/>
	<path fill="#F48CC0" d="M600,49.999L600,49.999L600,49.999L600,49.999 M550.001,0 M500.001,50.001
		c27.607,0,49.989,22.375,49.999,49.979C550.011,72.375,572.393,50,599.999,50H600c-27.615-0.001-49.999-22.388-49.999-50H550
		C550,27.615,527.613,50,500.001,50.001L500.001,50.001 M550.001,100.001L550.001,100.001c0-0.008-0.001-0.014-0.001-0.021
		C550,99.987,550,99.993,550.001,100.001"/>
	<path fill="#8CCAF4" d="M650,0.015L650,0.015c-27.614,0-50,22.386-50,50C627.613,50.015,650,27.63,650,0.015z"/>
	<path fill="#8CCAF4" d="M700,50.015L700,50.015c-27.614,0-50,22.386-50,50C677.613,100.015,700,77.63,700,50.015z"/>
	<path fill="#8CCAF4" d="M700,50.015L700,50.015c0-27.614-22.386-50-50-50C650,27.628,672.385,50.015,700,50.015z"/>
	<path fill="#8CCAF4" d="M650,100.015L650,100.015c0-27.614-22.386-50-50-50C600,77.628,622.385,100.015,650,100.015z"/>
	<path fill="#8BF78B" d="M649.999,0.015H600v50C600,22.4,622.386,0.015,649.999,0.015z"/>
	<path fill="#8BF78B" d="M650.001,100.015H700v-50C700,77.629,677.614,100.015,650.001,100.015z"/>
	<path fill="#8BF78B" d="M600,50.016v49.999h50C622.386,100.015,600,77.629,600,50.016z"/>
	<path fill="#8BF78B" d="M700,50.014V0.015h-50C677.614,0.015,700,22.4,700,50.014z"/>
	<path fill="#F48CC0" d="M700,49.999L700,49.999L700,49.999L700,49.999 M650.001,0 M600.001,50.001
		c27.607,0,49.989,22.375,49.999,49.979C650.011,72.375,672.393,50,699.999,50H700c-27.615-0.001-49.999-22.388-49.999-50H650
		C650,27.615,627.613,50,600.001,50.001L600.001,50.001 M650.001,100.001L650.001,100.001c0-0.008-0.001-0.014-0.001-0.021
		C650,99.987,650,99.993,650.001,100.001"/>
	<path fill="#8CCAF4" d="M750,0.015L750,0.015c-27.614,0-50,22.386-50,50C727.613,50.015,750,27.63,750,0.015z"/>
	<path fill="#8CCAF4" d="M800,50.015L800,50.015c-27.614,0-50,22.386-50,50C777.613,100.015,800,77.63,800,50.015z"/>
	<path fill="#8CCAF4" d="M800,50.015L800,50.015c0-27.614-22.386-50-50-50C750,27.628,772.385,50.015,800,50.015z"/>
	<path fill="#8CCAF4" d="M750,100.015L750,100.015c0-27.614-22.386-50-50-50C700,77.628,722.385,100.015,750,100.015z"/>
	<path fill="#8BF78B" d="M749.999,0.015H700v50C700,22.4,722.386,0.015,749.999,0.015z"/>
	<path fill="#8BF78B" d="M750.001,100.015H800v-50C800,77.629,777.614,100.015,750.001,100.015z"/>
	<path fill="#8BF78B" d="M700,50.016v49.999h50C722.386,100.015,700,77.629,700,50.016z"/>
	<path fill="#8BF78B" d="M800,50.014V0.015h-50C777.614,0.015,800,22.4,800,50.014z"/>
	<path fill="#F48CC0" d="M800,49.999L800,49.999L800,49.999L800,49.999 M750.001,0 M700.001,50.001
		c27.607,0,49.989,22.375,49.999,49.979C750.011,72.375,772.393,50,799.999,50H800c-27.615-0.001-49.999-22.388-49.999-50H750
		C750,27.615,727.613,50,700.001,50.001L700.001,50.001 M750.001,100.001L750.001,100.001c0-0.008-0.001-0.014-0.001-0.021
		C750,99.987,750,99.993,750.001,100.001"/>
	<path fill="#8CCAF4" d="M50,100.015L50,100.015c-27.614,0-50,22.386-50,50C27.613,150.015,50,127.63,50,100.015z"/>
	<path fill="#8CCAF4" d="M100,150.015L100,150.015c-27.614,0-50,22.386-50,50C77.613,200.015,100,177.63,100,150.015z"/>
	<path fill="#8CCAF4" d="M100,150.015L100,150.015c0-27.614-22.386-50-50-50C50,127.628,72.385,150.015,100,150.015z"/>
	<path fill="#8CCAF4" d="M50,200.015L50,200.015c0-27.614-22.386-50-50-50C0,177.628,22.385,200.015,50,200.015z"/>
	<path fill="#8BF78B" d="M49.999,100.015H0v50C0,122.4,22.386,100.015,49.999,100.015z"/>
	<path fill="#8BF78B" d="M50.001,200.015H100v-50C100,177.629,77.614,200.015,50.001,200.015z"/>
	<path fill="#8BF78B" d="M0,150.016v49.999h50C22.386,200.015,0,177.629,0,150.016z"/>
	<path fill="#8BF78B" d="M100,150.014v-49.999H50C77.614,100.015,100,122.4,100,150.014z"/>
	<path fill="#F48CC0" d="M100,149.999L100,149.999L100,149.999L100,149.999 M50.001,100 M0.001,150.001
		c27.607,0,49.989,22.375,49.999,49.979C50.011,172.375,72.393,150,99.999,150H100c-27.615-0.001-49.999-22.388-49.999-50H50
		C50,127.615,27.613,150,0.001,150.001L0.001,150.001 M50.001,200.001L50.001,200.001c0-0.008-0.001-0.014-0.001-0.021
		C50,199.987,50,199.993,50.001,200.001"/>
	<path fill="#8CCAF4" d="M150,100.015L150,100.015c-27.614,0-50,22.386-50,50C127.613,150.015,150,127.63,150,100.015z"/>
	<path fill="#8CCAF4" d="M200,150.015L200,150.015c-27.614,0-50,22.386-50,50C177.613,200.015,200,177.63,200,150.015z"/>
	<path fill="#8CCAF4" d="M200,150.015L200,150.015c0-27.614-22.386-50-50-50C150,127.628,172.385,150.015,200,150.015z"/>
	<path fill="#8CCAF4" d="M150,200.015L150,200.015c0-27.614-22.386-50-50-50C100,177.628,122.385,200.015,150,200.015z"/>
	<path fill="#8BF78B" d="M149.999,100.015H100v50C100,122.4,122.386,100.015,149.999,100.015z"/>
	<path fill="#8BF78B" d="M150.001,200.015H200v-50C200,177.629,177.614,200.015,150.001,200.015z"/>
	<path fill="#8BF78B" d="M100,150.016v49.999h50C122.386,200.015,100,177.629,100,150.016z"/>
	<path fill="#8BF78B" d="M200,150.014v-49.999h-50C177.614,100.015,200,122.4,200,150.014z"/>
	<path fill="#F48CC0" d="M200,149.999L200,149.999L200,149.999L200,149.999 M150.001,100 M100.001,150.001
		c27.607,0,49.989,22.375,49.999,49.979c0.011-27.605,22.393-49.98,49.999-49.98H200c-27.615-0.001-49.999-22.388-49.999-50H150
		C150,127.615,127.613,150,100.001,150.001L100.001,150.001 M150.001,200.001L150.001,200.001c0-0.008-0.001-0.014-0.001-0.021
		C150,199.987,150,199.993,150.001,200.001"/>
	<path fill="#8CCAF4" d="M250,100.015L250,100.015c-27.614,0-50,22.386-50,50C227.613,150.015,250,127.63,250,100.015z"/>
	<path fill="#8CCAF4" d="M300,150.015L300,150.015c-27.614,0-50,22.386-50,50C277.613,200.015,300,177.63,300,150.015z"/>
	<path fill="#8CCAF4" d="M300,150.015L300,150.015c0-27.614-22.386-50-50-50C250,127.628,272.385,150.015,300,150.015z"/>
	<path fill="#8CCAF4" d="M250,200.015L250,200.015c0-27.614-22.386-50-50-50C200,177.628,222.385,200.015,250,200.015z"/>
	<path fill="#8BF78B" d="M249.999,100.015H200v50C200,122.4,222.386,100.015,249.999,100.015z"/>
	<path fill="#8BF78B" d="M250.001,200.015H300v-50C300,177.629,277.614,200.015,250.001,200.015z"/>
	<path fill="#8BF78B" d="M200,150.016v49.999h50C222.386,200.015,200,177.629,200,150.016z"/>
	<path fill="#8BF78B" d="M300,150.014v-49.999h-50C277.614,100.015,300,122.4,300,150.014z"/>
	<path fill="#F48CC0" d="M300,149.999L300,149.999L300,149.999L300,149.999 M250.001,100 M200.001,150.001
		c27.607,0,49.989,22.375,49.999,49.979c0.011-27.605,22.393-49.98,49.999-49.98H300c-27.615-0.001-49.999-22.388-49.999-50H250
		C250,127.615,227.613,150,200.001,150.001L200.001,150.001 M250.001,200.001L250.001,200.001c0-0.008-0.001-0.014-0.001-0.021
		C250,199.987,250,199.993,250.001,200.001"/>
	<path fill="#8CCAF4" d="M350,100.015L350,100.015c-27.614,0-50,22.386-50,50C327.613,150.015,350,127.63,350,100.015z"/>
	<path fill="#8CCAF4" d="M400,150.015L400,150.015c-27.614,0-50,22.386-50,50C377.613,200.015,400,177.63,400,150.015z"/>
	<path fill="#8CCAF4" d="M400,150.015L400,150.015c0-27.614-22.386-50-50-50C350,127.628,372.385,150.015,400,150.015z"/>
	<path fill="#8CCAF4" d="M350,200.015L350,200.015c0-27.614-22.386-50-50-50C300,177.628,322.385,200.015,350,200.015z"/>
	<path fill="#8BF78B" d="M349.999,100.015H300v50C300,122.4,322.386,100.015,349.999,100.015z"/>
	<path fill="#8BF78B" d="M350.001,200.015H400v-50C400,177.629,377.614,200.015,350.001,200.015z"/>
	<path fill="#8BF78B" d="M300,150.016v49.999h50C322.386,200.015,300,177.629,300,150.016z"/>
	<path fill="#8BF78B" d="M400,150.014v-49.999h-50C377.614,100.015,400,122.4,400,150.014z"/>
	<path fill="#F48CC0" d="M400,149.999L400,149.999L400,149.999L400,149.999 M350.001,100 M300.001,150.001
		c27.607,0,49.989,22.375,49.999,49.979c0.011-27.605,22.393-49.98,49.999-49.98H400c-27.615-0.001-49.999-22.388-49.999-50H350
		C350,127.615,327.613,150,300.001,150.001L300.001,150.001 M350.001,200.001L350.001,200.001c0-0.008-0.001-0.014-0.001-0.021
		C350,199.987,350,199.993,350.001,200.001"/>
	<path fill="#8CCAF4" d="M450,100.015L450,100.015c-27.614,0-50,22.386-50,50C427.613,150.015,450,127.63,450,100.015z"/>
	<path fill="#8CCAF4" d="M500,150.015L500,150.015c-27.614,0-50,22.386-50,50C477.613,200.015,500,177.63,500,150.015z"/>
	<path fill="#8CCAF4" d="M500,150.015L500,150.015c0-27.614-22.386-50-50-50C450,127.628,472.385,150.015,500,150.015z"/>
	<path fill="#8CCAF4" d="M450,200.015L450,200.015c0-27.614-22.386-50-50-50C400,177.628,422.385,200.015,450,200.015z"/>
	<path fill="#8BF78B" d="M449.999,100.015H400v50C400,122.4,422.386,100.015,449.999,100.015z"/>
	<path fill="#8BF78B" d="M450.001,200.015H500v-50C500,177.629,477.614,200.015,450.001,200.015z"/>
	<path fill="#8BF78B" d="M400,150.016v49.999h50C422.386,200.015,400,177.629,400,150.016z"/>
	<path fill="#8BF78B" d="M500,150.014v-49.999h-50C477.614,100.015,500,122.4,500,150.014z"/>
	<path fill="#F48CC0" d="M500,149.999L500,149.999L500,149.999L500,149.999 M450.001,100 M400.001,150.001
		c27.607,0,49.989,22.375,49.999,49.979c0.011-27.605,22.393-49.98,49.999-49.98H500c-27.615-0.001-49.999-22.388-49.999-50H450
		C450,127.615,427.613,150,400.001,150.001L400.001,150.001 M450.001,200.001L450.001,200.001c0-0.008-0.001-0.014-0.001-0.021
		C450,199.987,450,199.993,450.001,200.001"/>
	<path fill="#8CCAF4" d="M550,100.015L550,100.015c-27.614,0-50,22.386-50,50C527.613,150.015,550,127.63,550,100.015z"/>
	<path fill="#8CCAF4" d="M600,150.015L600,150.015c-27.614,0-50,22.386-50,50C577.613,200.015,600,177.63,600,150.015z"/>
	<path fill="#8CCAF4" d="M600,150.015L600,150.015c0-27.614-22.386-50-50-50C550,127.628,572.385,150.015,600,150.015z"/>
	<path fill="#8CCAF4" d="M550,200.015L550,200.015c0-27.614-22.386-50-50-50C500,177.628,522.385,200.015,550,200.015z"/>
	<path fill="#8BF78B" d="M549.999,100.015H500v50C500,122.4,522.386,100.015,549.999,100.015z"/>
	<path fill="#8BF78B" d="M550.001,200.015H600v-50C600,177.629,577.614,200.015,550.001,200.015z"/>
	<path fill="#8BF78B" d="M500,150.016v49.999h50C522.386,200.015,500,177.629,500,150.016z"/>
	<path fill="#8BF78B" d="M600,150.014v-49.999h-50C577.614,100.015,600,122.4,600,150.014z"/>
	<path fill="#F48CC0" d="M600,149.999L600,149.999L600,149.999L600,149.999 M550.001,100 M500.001,150.001
		c27.607,0,49.989,22.375,49.999,49.979c0.011-27.605,22.393-49.98,49.999-49.98H600c-27.615-0.001-49.999-22.388-49.999-50H550
		C550,127.615,527.613,150,500.001,150.001L500.001,150.001 M550.001,200.001L550.001,200.001c0-0.008-0.001-0.014-0.001-0.021
		C550,199.987,550,199.993,550.001,200.001"/>
	<path fill="#8CCAF4" d="M650,100.015L650,100.015c-27.614,0-50,22.386-50,50C627.613,150.015,650,127.63,650,100.015z"/>
	<path fill="#8CCAF4" d="M700,150.015L700,150.015c-27.614,0-50,22.386-50,50C677.613,200.015,700,177.63,700,150.015z"/>
	<path fill="#8CCAF4" d="M700,150.015L700,150.015c0-27.614-22.386-50-50-50C650,127.628,672.385,150.015,700,150.015z"/>
	<path fill="#8CCAF4" d="M650,200.015L650,200.015c0-27.614-22.386-50-50-50C600,177.628,622.385,200.015,650,200.015z"/>
	<path fill="#8BF78B" d="M649.999,100.015H600v50C600,122.4,622.386,100.015,649.999,100.015z"/>
	<path fill="#8BF78B" d="M650.001,200.015H700v-50C700,177.629,677.614,200.015,650.001,200.015z"/>
	<path fill="#8BF78B" d="M600,150.016v49.999h50C622.386,200.015,600,177.629,600,150.016z"/>
	<path fill="#8BF78B" d="M700,150.014v-49.999h-50C677.614,100.015,700,122.4,700,150.014z"/>
	<path fill="#F48CC0" d="M700,149.999L700,149.999L700,149.999L700,149.999 M650.001,100 M600.001,150.001
		c27.607,0,49.989,22.375,49.999,49.979c0.011-27.605,22.393-49.98,49.999-49.98H700c-27.615-0.001-49.999-22.388-49.999-50H650
		C650,127.615,627.613,150,600.001,150.001L600.001,150.001 M650.001,200.001L650.001,200.001c0-0.008-0.001-0.014-0.001-0.021
		C650,199.987,650,199.993,650.001,200.001"/>
	<path fill="#8CCAF4" d="M750,100.015L750,100.015c-27.614,0-50,22.386-50,50C727.613,150.015,750,127.63,750,100.015z"/>
	<path fill="#8CCAF4" d="M800,150.015L800,150.015c-27.614,0-50,22.386-50,50C777.613,200.015,800,177.63,800,150.015z"/>
	<path fill="#8CCAF4" d="M800,150.015L800,150.015c0-27.614-22.386-50-50-50C750,127.628,772.385,150.015,800,150.015z"/>
	<path fill="#8CCAF4" d="M750,200.015L750,200.015c0-27.614-22.386-50-50-50C700,177.628,722.385,200.015,750,200.015z"/>
	<path fill="#8BF78B" d="M749.999,100.015H700v50C700,122.4,722.386,100.015,749.999,100.015z"/>
	<path fill="#8BF78B" d="M750.001,200.015H800v-50C800,177.629,777.614,200.015,750.001,200.015z"/>
	<path fill="#8BF78B" d="M700,150.016v49.999h50C722.386,200.015,700,177.629,700,150.016z"/>
	<path fill="#8BF78B" d="M800,150.014v-49.999h-50C777.614,100.015,800,122.4,800,150.014z"/>
	<path fill="#F48CC0" d="M800,149.999L800,149.999L800,149.999L800,149.999 M750.001,100 M700.001,150.001
		c27.607,0,49.989,22.375,49.999,49.979c0.011-27.605,22.393-49.98,49.999-49.98H800c-27.615-0.001-49.999-22.388-49.999-50H750
		C750,127.615,727.613,150,700.001,150.001L700.001,150.001 M750.001,200.001L750.001,200.001c0-0.008-0.001-0.014-0.001-0.021
		C750,199.987,750,199.993,750.001,200.001"/>
	<path fill="#8CCAF4" d="M50,200.015L50,200.015c-27.614,0-50,22.386-50,50C27.613,250.015,50,227.63,50,200.015z"/>
	<path fill="#8CCAF4" d="M100,250.015L100,250.015c-27.614,0-50,22.386-50,50C77.613,300.015,100,277.63,100,250.015z"/>
	<path fill="#8CCAF4" d="M100,250.015L100,250.015c0-27.614-22.386-50-50-50C50,227.628,72.385,250.015,100,250.015z"/>
	<path fill="#8CCAF4" d="M50,300.015L50,300.015c0-27.614-22.386-50-50-50C0,277.628,22.385,300.015,50,300.015z"/>
	<path fill="#8BF78B" d="M49.999,200.015H0v50C0,222.4,22.386,200.015,49.999,200.015z"/>
	<path fill="#8BF78B" d="M50.001,300.015H100v-50C100,277.629,77.614,300.015,50.001,300.015z"/>
	<path fill="#8BF78B" d="M0,250.016v49.999h50C22.386,300.015,0,277.629,0,250.016z"/>
	<path fill="#8BF78B" d="M100,250.014v-49.999H50C77.614,200.015,100,222.4,100,250.014z"/>
	<path fill="#F48CC0" d="M100,249.999L100,249.999L100,249.999L100,249.999 M50.001,200 M0.001,250.001
		c27.607,0,49.989,22.375,49.999,49.979C50.011,272.375,72.393,250,99.999,250H100c-27.615-0.001-49.999-22.388-49.999-50H50
		C50,227.615,27.613,250,0.001,250.001L0.001,250.001 M50.001,300.001L50.001,300.001c0-0.008-0.001-0.014-0.001-0.021
		C50,299.987,50,299.993,50.001,300.001"/>
	<path fill="#8CCAF4" d="M150,200.015L150,200.015c-27.614,0-50,22.386-50,50C127.613,250.015,150,227.63,150,200.015z"/>
	<path fill="#8CCAF4" d="M200,250.015L200,250.015c-27.614,0-50,22.386-50,50C177.613,300.015,200,277.63,200,250.015z"/>
	<path fill="#8CCAF4" d="M200,250.015L200,250.015c0-27.614-22.386-50-50-50C150,227.628,172.385,250.015,200,250.015z"/>
	<path fill="#8CCAF4" d="M150,300.015L150,300.015c0-27.614-22.386-50-50-50C100,277.628,122.385,300.015,150,300.015z"/>
	<path fill="#8BF78B" d="M149.999,200.015H100v50C100,222.4,122.386,200.015,149.999,200.015z"/>
	<path fill="#8BF78B" d="M150.001,300.015H200v-50C200,277.629,177.614,300.015,150.001,300.015z"/>
	<path fill="#8BF78B" d="M100,250.016v49.999h50C122.386,300.015,100,277.629,100,250.016z"/>
	<path fill="#8BF78B" d="M200,250.014v-49.999h-50C177.614,200.015,200,222.4,200,250.014z"/>
	<path fill="#F48CC0" d="M200,249.999L200,249.999L200,249.999L200,249.999 M150.001,200 M100.001,250.001
		c27.607,0,49.989,22.375,49.999,49.979c0.011-27.605,22.393-49.98,49.999-49.98H200c-27.615-0.001-49.999-22.388-49.999-50H150
		C150,227.615,127.613,250,100.001,250.001L100.001,250.001 M150.001,300.001L150.001,300.001c0-0.008-0.001-0.014-0.001-0.021
		C150,299.987,150,299.993,150.001,300.001"/>
	<path fill="#8CCAF4" d="M250,200.015L250,200.015c-27.614,0-50,22.386-50,50C227.613,250.015,250,227.63,250,200.015z"/>
	<path fill="#8CCAF4" d="M300,250.015L300,250.015c-27.614,0-50,22.386-50,50C277.613,300.015,300,277.63,300,250.015z"/>
	<path fill="#8CCAF4" d="M300,250.015L300,250.015c0-27.614-22.386-50-50-50C250,227.628,272.385,250.015,300,250.015z"/>
	<path fill="#8CCAF4" d="M250,300.015L250,300.015c0-27.614-22.386-50-50-50C200,277.628,222.385,300.015,250,300.015z"/>
	<path fill="#8BF78B" d="M249.999,200.015H200v50C200,222.4,222.386,200.015,249.999,200.015z"/>
	<path fill="#8BF78B" d="M250.001,300.015H300v-50C300,277.629,277.614,300.015,250.001,300.015z"/>
	<path fill="#8BF78B" d="M200,250.016v49.999h50C222.386,300.015,200,277.629,200,250.016z"/>
	<path fill="#8BF78B" d="M300,250.014v-49.999h-50C277.614,200.015,300,222.4,300,250.014z"/>
	<path fill="#F48CC0" d="M300,249.999L300,249.999L300,249.999L300,249.999 M250.001,200 M200.001,250.001
		c27.607,0,49.989,22.375,49.999,49.979c0.011-27.605,22.393-49.98,49.999-49.98H300c-27.615-0.001-49.999-22.388-49.999-50H250
		C250,227.615,227.613,250,200.001,250.001L200.001,250.001 M250.001,300.001L250.001,300.001c0-0.008-0.001-0.014-0.001-0.021
		C250,299.987,250,299.993,250.001,300.001"/>
	<path fill="#8CCAF4" d="M350,200.015L350,200.015c-27.614,0-50,22.386-50,50C327.613,250.015,350,227.63,350,200.015z"/>
	<path fill="#8CCAF4" d="M400,250.015L400,250.015c-27.614,0-50,22.386-50,50C377.613,300.015,400,277.63,400,250.015z"/>
	<path fill="#8CCAF4" d="M400,250.015L400,250.015c0-27.614-22.386-50-50-50C350,227.628,372.385,250.015,400,250.015z"/>
	<path fill="#8CCAF4" d="M350,300.015L350,300.015c0-27.614-22.386-50-50-50C300,277.628,322.385,300.015,350,300.015z"/>
	<path fill="#8BF78B" d="M349.999,200.015H300v50C300,222.4,322.386,200.015,349.999,200.015z"/>
	<path fill="#8BF78B" d="M350.001,300.015H400v-50C400,277.629,377.614,300.015,350.001,300.015z"/>
	<path fill="#8BF78B" d="M300,250.016v49.999h50C322.386,300.015,300,277.629,300,250.016z"/>
	<path fill="#8BF78B" d="M400,250.014v-49.999h-50C377.614,200.015,400,222.4,400,250.014z"/>
	<path fill="#F48CC0" d="M400,249.999L400,249.999L400,249.999L400,249.999 M350.001,200 M300.001,250.001
		c27.607,0,49.989,22.375,49.999,49.979c0.011-27.605,22.393-49.98,49.999-49.98H400c-27.615-0.001-49.999-22.388-49.999-50H350
		C350,227.615,327.613,250,300.001,250.001L300.001,250.001 M350.001,300.001L350.001,300.001c0-0.008-0.001-0.014-0.001-0.021
		C350,299.987,350,299.993,350.001,300.001"/>
	<path fill="#8CCAF4" d="M450,200.015L450,200.015c-27.614,0-50,22.386-50,50C427.613,250.015,450,227.63,450,200.015z"/>
	<path fill="#8CCAF4" d="M500,250.015L500,250.015c-27.614,0-50,22.386-50,50C477.613,300.015,500,277.63,500,250.015z"/>
	<path fill="#8CCAF4" d="M500,250.015L500,250.015c0-27.614-22.386-50-50-50C450,227.628,472.385,250.015,500,250.015z"/>
	<path fill="#8CCAF4" d="M450,300.015L450,300.015c0-27.614-22.386-50-50-50C400,277.628,422.385,300.015,450,300.015z"/>
	<path fill="#8BF78B" d="M449.999,200.015H400v50C400,222.4,422.386,200.015,449.999,200.015z"/>
	<path fill="#8BF78B" d="M450.001,300.015H500v-50C500,277.629,477.614,300.015,450.001,300.015z"/>
	<path fill="#8BF78B" d="M400,250.016v49.999h50C422.386,300.015,400,277.629,400,250.016z"/>
	<path fill="#8BF78B" d="M500,250.014v-49.999h-50C477.614,200.015,500,222.4,500,250.014z"/>
	<path fill="#F48CC0" d="M500,249.999L500,249.999L500,249.999L500,249.999 M450.001,200 M400.001,250.001
		c27.607,0,49.989,22.375,49.999,49.979c0.011-27.605,22.393-49.98,49.999-49.98H500c-27.615-0.001-49.999-22.388-49.999-50H450
		C450,227.615,427.613,250,400.001,250.001L400.001,250.001 M450.001,300.001L450.001,300.001c0-0.008-0.001-0.014-0.001-0.021
		C450,299.987,450,299.993,450.001,300.001"/>
	<path fill="#8CCAF4" d="M550,200.015L550,200.015c-27.614,0-50,22.386-50,50C527.613,250.015,550,227.63,550,200.015z"/>
	<path fill="#8CCAF4" d="M600,250.015L600,250.015c-27.614,0-50,22.386-50,50C577.613,300.015,600,277.63,600,250.015z"/>
	<path fill="#8CCAF4" d="M600,250.015L600,250.015c0-27.614-22.386-50-50-50C550,227.628,572.385,250.015,600,250.015z"/>
	<path fill="#8CCAF4" d="M550,300.015L550,300.015c0-27.614-22.386-50-50-50C500,277.628,522.385,300.015,550,300.015z"/>
	<path fill="#8BF78B" d="M549.999,200.015H500v50C500,222.4,522.386,200.015,549.999,200.015z"/>
	<path fill="#8BF78B" d="M550.001,300.015H600v-50C600,277.629,577.614,300.015,550.001,300.015z"/>
	<path fill="#8BF78B" d="M500,250.016v49.999h50C522.386,300.015,500,277.629,500,250.016z"/>
	<path fill="#8BF78B" d="M600,250.014v-49.999h-50C577.614,200.015,600,222.4,600,250.014z"/>
	<path fill="#F48CC0" d="M600,249.999L600,249.999L600,249.999L600,249.999 M550.001,200 M500.001,250.001
		c27.607,0,49.989,22.375,49.999,49.979c0.011-27.605,22.393-49.98,49.999-49.98H600c-27.615-0.001-49.999-22.388-49.999-50H550
		C550,227.615,527.613,250,500.001,250.001L500.001,250.001 M550.001,300.001L550.001,300.001c0-0.008-0.001-0.014-0.001-0.021
		C550,299.987,550,299.993,550.001,300.001"/>
	<path fill="#8CCAF4" d="M650,200.015L650,200.015c-27.614,0-50,22.386-50,50C627.613,250.015,650,227.63,650,200.015z"/>
	<path fill="#8CCAF4" d="M700,250.015L700,250.015c-27.614,0-50,22.386-50,50C677.613,300.015,700,277.63,700,250.015z"/>
	<path fill="#8CCAF4" d="M700,250.015L700,250.015c0-27.614-22.386-50-50-50C650,227.628,672.385,250.015,700,250.015z"/>
	<path fill="#8CCAF4" d="M650,300.015L650,300.015c0-27.614-22.386-50-50-50C600,277.628,622.385,300.015,650,300.015z"/>
	<path fill="#8BF78B" d="M649.999,200.015H600v50C600,222.4,622.386,200.015,649.999,200.015z"/>
	<path fill="#8BF78B" d="M650.001,300.015H700v-50C700,277.629,677.614,300.015,650.001,300.015z"/>
	<path fill="#8BF78B" d="M600,250.016v49.999h50C622.386,300.015,600,277.629,600,250.016z"/>
	<path fill="#8BF78B" d="M700,250.014v-49.999h-50C677.614,200.015,700,222.4,700,250.014z"/>
	<path fill="#F48CC0" d="M700,249.999L700,249.999L700,249.999L700,249.999 M650.001,200 M600.001,250.001
		c27.607,0,49.989,22.375,49.999,49.979c0.011-27.605,22.393-49.98,49.999-49.98H700c-27.615-0.001-49.999-22.388-49.999-50H650
		C650,227.615,627.613,250,600.001,250.001L600.001,250.001 M650.001,300.001L650.001,300.001c0-0.008-0.001-0.014-0.001-0.021
		C650,299.987,650,299.993,650.001,300.001"/>
	<path fill="#8CCAF4" d="M750,200.015L750,200.015c-27.614,0-50,22.386-50,50C727.613,250.015,750,227.63,750,200.015z"/>
	<path fill="#8CCAF4" d="M800,250.015L800,250.015c-27.614,0-50,22.386-50,50C777.613,300.015,800,277.63,800,250.015z"/>
	<path fill="#8CCAF4" d="M800,250.015L800,250.015c0-27.614-22.386-50-50-50C750,227.628,772.385,250.015,800,250.015z"/>
	<path fill="#8CCAF4" d="M750,300.015L750,300.015c0-27.614-22.386-50-50-50C700,277.628,722.385,300.015,750,300.015z"/>
	<path fill="#8BF78B" d="M749.999,200.015H700v50C700,222.4,722.386,200.015,749.999,200.015z"/>
	<path fill="#8BF78B" d="M750.001,300.015H800v-50C800,277.629,777.614,300.015,750.001,300.015z"/>
	<path fill="#8BF78B" d="M700,250.016v49.999h50C722.386,300.015,700,277.629,700,250.016z"/>
	<path fill="#8BF78B" d="M800,250.014v-49.999h-50C777.614,200.015,800,222.4,800,250.014z"/>
	<path fill="#F48CC0" d="M800,249.999L800,249.999L800,249.999L800,249.999 M750.001,200 M700.001,250.001
		c27.607,0,49.989,22.375,49.999,49.979c0.011-27.605,22.393-49.98,49.999-49.98H800c-27.615-0.001-49.999-22.388-49.999-50H750
		C750,227.615,727.613,250,700.001,250.001L700.001,250.001 M750.001,300.001L750.001,300.001c0-0.008-0.001-0.014-0.001-0.021
		C750,299.987,750,299.993,750.001,300.001"/>
	<path fill="#8CCAF4" d="M50,300.015L50,300.015c-27.614,0-50,22.386-50,50C27.613,350.015,50,327.63,50,300.015z"/>
	<path fill="#8CCAF4" d="M100,350.015L100,350.015c-27.614,0-50,22.386-50,50C77.613,400.015,100,377.63,100,350.015z"/>
	<path fill="#8CCAF4" d="M100,350.015L100,350.015c0-27.614-22.386-50-50-50C50,327.628,72.385,350.015,100,350.015z"/>
	<path fill="#8CCAF4" d="M50,400.015L50,400.015c0-27.614-22.386-50-50-50C0,377.628,22.385,400.015,50,400.015z"/>
	<path fill="#8BF78B" d="M49.999,300.015H0v50C0,322.4,22.386,300.015,49.999,300.015z"/>
	<path fill="#8BF78B" d="M50.001,400.015H100v-50C100,377.629,77.614,400.015,50.001,400.015z"/>
	<path fill="#8BF78B" d="M0,350.016v49.999h50C22.386,400.015,0,377.629,0,350.016z"/>
	<path fill="#8BF78B" d="M100,350.014v-49.999H50C77.614,300.015,100,322.4,100,350.014z"/>
	<path fill="#F48CC0" d="M100,349.999L100,349.999L100,349.999L100,349.999 M50.001,300 M0.001,350.001
		c27.607,0,49.989,22.375,49.999,49.979C50.011,372.375,72.393,350,99.999,350H100c-27.615-0.001-49.999-22.388-49.999-50H50
		C50,327.615,27.613,350,0.001,350.001L0.001,350.001 M50.001,400.001L50.001,400.001c0-0.008-0.001-0.014-0.001-0.021
		C50,399.987,50,399.993,50.001,400.001"/>
	<path fill="#8CCAF4" d="M150,300.015L150,300.015c-27.614,0-50,22.386-50,50C127.613,350.015,150,327.63,150,300.015z"/>
	<path fill="#8CCAF4" d="M200,350.015L200,350.015c-27.614,0-50,22.386-50,50C177.613,400.015,200,377.63,200,350.015z"/>
	<path fill="#8CCAF4" d="M200,350.015L200,350.015c0-27.614-22.386-50-50-50C150,327.628,172.385,350.015,200,350.015z"/>
	<path fill="#8CCAF4" d="M150,400.015L150,400.015c0-27.614-22.386-50-50-50C100,377.628,122.385,400.015,150,400.015z"/>
	<path fill="#8BF78B" d="M149.999,300.015H100v50C100,322.4,122.386,300.015,149.999,300.015z"/>
	<path fill="#8BF78B" d="M150.001,400.015H200v-50C200,377.629,177.614,400.015,150.001,400.015z"/>
	<path fill="#8BF78B" d="M100,350.016v49.999h50C122.386,400.015,100,377.629,100,350.016z"/>
	<path fill="#8BF78B" d="M200,350.014v-49.999h-50C177.614,300.015,200,322.4,200,350.014z"/>
	<path fill="#F48CC0" d="M200,349.999L200,349.999L200,349.999L200,349.999 M150.001,300 M100.001,350.001
		c27.607,0,49.989,22.375,49.999,49.979c0.011-27.605,22.393-49.98,49.999-49.98H200c-27.615-0.001-49.999-22.388-49.999-50H150
		C150,327.615,127.613,350,100.001,350.001L100.001,350.001 M150.001,400.001L150.001,400.001c0-0.008-0.001-0.014-0.001-0.021
		C150,399.987,150,399.993,150.001,400.001"/>
	<path fill="#8CCAF4" d="M250,300.015L250,300.015c-27.614,0-50,22.386-50,50C227.613,350.015,250,327.63,250,300.015z"/>
	<path fill="#8CCAF4" d="M300,350.015L300,350.015c-27.614,0-50,22.386-50,50C277.613,400.015,300,377.63,300,350.015z"/>
	<path fill="#8CCAF4" d="M300,350.015L300,350.015c0-27.614-22.386-50-50-50C250,327.628,272.385,350.015,300,350.015z"/>
	<path fill="#8CCAF4" d="M250,400.015L250,400.015c0-27.614-22.386-50-50-50C200,377.628,222.385,400.015,250,400.015z"/>
	<path fill="#8BF78B" d="M249.999,300.015H200v50C200,322.4,222.386,300.015,249.999,300.015z"/>
	<path fill="#8BF78B" d="M250.001,400.015H300v-50C300,377.629,277.614,400.015,250.001,400.015z"/>
	<path fill="#8BF78B" d="M200,350.016v49.999h50C222.386,400.015,200,377.629,200,350.016z"/>
	<path fill="#8BF78B" d="M300,350.014v-49.999h-50C277.614,300.015,300,322.4,300,350.014z"/>
	<path fill="#F48CC0" d="M300,349.999L300,349.999L300,349.999L300,349.999 M250.001,300 M200.001,350.001
		c27.607,0,49.989,22.375,49.999,49.979c0.011-27.605,22.393-49.98,49.999-49.98H300c-27.615-0.001-49.999-22.388-49.999-50H250
		C250,327.615,227.613,350,200.001,350.001L200.001,350.001 M250.001,400.001L250.001,400.001c0-0.008-0.001-0.014-0.001-0.021
		C250,399.987,250,399.993,250.001,400.001"/>
	<path fill="#8CCAF4" d="M350,300.015L350,300.015c-27.614,0-50,22.386-50,50C327.613,350.015,350,327.63,350,300.015z"/>
	<path fill="#8CCAF4" d="M400,350.015L400,350.015c-27.614,0-50,22.386-50,50C377.613,400.015,400,377.63,400,350.015z"/>
	<path fill="#8CCAF4" d="M400,350.015L400,350.015c0-27.614-22.386-50-50-50C350,327.628,372.385,350.015,400,350.015z"/>
	<path fill="#8CCAF4" d="M350,400.015L350,400.015c0-27.614-22.386-50-50-50C300,377.628,322.385,400.015,350,400.015z"/>
	<path fill="#8BF78B" d="M349.999,300.015H300v50C300,322.4,322.386,300.015,349.999,300.015z"/>
	<path fill="#8BF78B" d="M350.001,400.015H400v-50C400,377.629,377.614,400.015,350.001,400.015z"/>
	<path fill="#8BF78B" d="M300,350.016v49.999h50C322.386,400.015,300,377.629,300,350.016z"/>
	<path fill="#8BF78B" d="M400,350.014v-49.999h-50C377.614,300.015,400,322.4,400,350.014z"/>
	<path fill="#F48CC0" d="M400,349.999L400,349.999L400,349.999L400,349.999 M350.001,300 M300.001,350.001
		c27.607,0,49.989,22.375,49.999,49.979c0.011-27.605,22.393-49.98,49.999-49.98H400c-27.615-0.001-49.999-22.388-49.999-50H350
		C350,327.615,327.613,350,300.001,350.001L300.001,350.001 M350.001,400.001L350.001,400.001c0-0.008-0.001-0.014-0.001-0.021
		C350,399.987,350,399.993,350.001,400.001"/>
	<path fill="#8CCAF4" d="M450,300.015L450,300.015c-27.614,0-50,22.386-50,50C427.613,350.015,450,327.63,450,300.015z"/>
	<path fill="#8CCAF4" d="M500,350.015L500,350.015c-27.614,0-50,22.386-50,50C477.613,400.015,500,377.63,500,350.015z"/>
	<path fill="#8CCAF4" d="M500,350.015L500,350.015c0-27.614-22.386-50-50-50C450,327.628,472.385,350.015,500,350.015z"/>
	<path fill="#8CCAF4" d="M450,400.015L450,400.015c0-27.614-22.386-50-50-50C400,377.628,422.385,400.015,450,400.015z"/>
	<path fill="#8BF78B" d="M449.999,300.015H400v50C400,322.4,422.386,300.015,449.999,300.015z"/>
	<path fill="#8BF78B" d="M450.001,400.015H500v-50C500,377.629,477.614,400.015,450.001,400.015z"/>
	<path fill="#8BF78B" d="M400,350.016v49.999h50C422.386,400.015,400,377.629,400,350.016z"/>
	<path fill="#8BF78B" d="M500,350.014v-49.999h-50C477.614,300.015,500,322.4,500,350.014z"/>
	<path fill="#F48CC0" d="M500,349.999L500,349.999L500,349.999L500,349.999 M450.001,300 M400.001,350.001
		c27.607,0,49.989,22.375,49.999,49.979c0.011-27.605,22.393-49.98,49.999-49.98H500c-27.615-0.001-49.999-22.388-49.999-50H450
		C450,327.615,427.613,350,400.001,350.001L400.001,350.001 M450.001,400.001L450.001,400.001c0-0.008-0.001-0.014-0.001-0.021
		C450,399.987,450,399.993,450.001,400.001"/>
	<path fill="#8CCAF4" d="M550,300.015L550,300.015c-27.614,0-50,22.386-50,50C527.613,350.015,550,327.63,550,300.015z"/>
	<path fill="#8CCAF4" d="M600,350.015L600,350.015c-27.614,0-50,22.386-50,50C577.613,400.015,600,377.63,600,350.015z"/>
	<path fill="#8CCAF4" d="M600,350.015L600,350.015c0-27.614-22.386-50-50-50C550,327.628,572.385,350.015,600,350.015z"/>
	<path fill="#8CCAF4" d="M550,400.015L550,400.015c0-27.614-22.386-50-50-50C500,377.628,522.385,400.015,550,400.015z"/>
	<path fill="#8BF78B" d="M549.999,300.015H500v50C500,322.4,522.386,300.015,549.999,300.015z"/>
	<path fill="#8BF78B" d="M550.001,400.015H600v-50C600,377.629,577.614,400.015,550.001,400.015z"/>
	<path fill="#8BF78B" d="M500,350.016v49.999h50C522.386,400.015,500,377.629,500,350.016z"/>
	<path fill="#8BF78B" d="M600,350.014v-49.999h-50C577.614,300.015,600,322.4,600,350.014z"/>
	<path fill="#F48CC0" d="M600,349.999L600,349.999L600,349.999L600,349.999 M550.001,300 M500.001,350.001
		c27.607,0,49.989,22.375,49.999,49.979c0.011-27.605,22.393-49.98,49.999-49.98H600c-27.615-0.001-49.999-22.388-49.999-50H550
		C550,327.615,527.613,350,500.001,350.001L500.001,350.001 M550.001,400.001L550.001,400.001c0-0.008-0.001-0.014-0.001-0.021
		C550,399.987,550,399.993,550.001,400.001"/>
	<path fill="#8CCAF4" d="M650,300.015L650,300.015c-27.614,0-50,22.386-50,50C627.613,350.015,650,327.63,650,300.015z"/>
	<path fill="#8CCAF4" d="M700,350.015L700,350.015c-27.614,0-50,22.386-50,50C677.613,400.015,700,377.63,700,350.015z"/>
	<path fill="#8CCAF4" d="M700,350.015L700,350.015c0-27.614-22.386-50-50-50C650,327.628,672.385,350.015,700,350.015z"/>
	<path fill="#8CCAF4" d="M650,400.015L650,400.015c0-27.614-22.386-50-50-50C600,377.628,622.385,400.015,650,400.015z"/>
	<path fill="#8BF78B" d="M649.999,300.015H600v50C600,322.4,622.386,300.015,649.999,300.015z"/>
	<path fill="#8BF78B" d="M650.001,400.015H700v-50C700,377.629,677.614,400.015,650.001,400.015z"/>
	<path fill="#8BF78B" d="M600,350.016v49.999h50C622.386,400.015,600,377.629,600,350.016z"/>
	<path fill="#8BF78B" d="M700,350.014v-49.999h-50C677.614,300.015,700,322.4,700,350.014z"/>
	<path fill="#F48CC0" d="M700,349.999L700,349.999L700,349.999L700,349.999 M650.001,300 M600.001,350.001
		c27.607,0,49.989,22.375,49.999,49.979c0.011-27.605,22.393-49.98,49.999-49.98H700c-27.615-0.001-49.999-22.388-49.999-50H650
		C650,327.615,627.613,350,600.001,350.001L600.001,350.001 M650.001,400.001L650.001,400.001c0-0.008-0.001-0.014-0.001-0.021
		C650,399.987,650,399.993,650.001,400.001"/>
	<path fill="#8CCAF4" d="M750,300.015L750,300.015c-27.614,0-50,22.386-50,50C727.613,350.015,750,327.63,750,300.015z"/>
	<path fill="#8CCAF4" d="M800,350.015L800,350.015c-27.614,0-50,22.386-50,50C777.613,400.015,800,377.63,800,350.015z"/>
	<path fill="#8CCAF4" d="M800,350.015L800,350.015c0-27.614-22.386-50-50-50C750,327.628,772.385,350.015,800,350.015z"/>
	<path fill="#8CCAF4" d="M750,400.015L750,400.015c0-27.614-22.386-50-50-50C700,377.628,722.385,400.015,750,400.015z"/>
	<path fill="#8BF78B" d="M749.999,300.015H700v50C700,322.4,722.386,300.015,749.999,300.015z"/>
	<path fill="#8BF78B" d="M750.001,400.015H800v-50C800,377.629,777.614,400.015,750.001,400.015z"/>
	<path fill="#8BF78B" d="M700,350.016v49.999h50C722.386,400.015,700,377.629,700,350.016z"/>
	<path fill="#8BF78B" d="M800,350.014v-49.999h-50C777.614,300.015,800,322.4,800,350.014z"/>
	<path fill="#F48CC0" d="M800,349.999L800,349.999L800,349.999L800,349.999 M750.001,300 M700.001,350.001
		c27.607,0,49.989,22.375,49.999,49.979c0.011-27.605,22.393-49.98,49.999-49.98H800c-27.615-0.001-49.999-22.388-49.999-50H750
		C750,327.615,727.613,350,700.001,350.001L700.001,350.001 M750.001,400.001L750.001,400.001c0-0.008-0.001-0.014-0.001-0.021
		C750,399.987,750,399.993,750.001,400.001"/>
	<path fill="#8CCAF4" d="M50,400.015L50,400.015c-27.614,0-50,22.386-50,50C27.613,450.015,50,427.63,50,400.015z"/>
	<path fill="#8CCAF4" d="M100,450.015L100,450.015c-27.614,0-50,22.386-50,50C77.613,500.015,100,477.63,100,450.015z"/>
	<path fill="#8CCAF4" d="M100,450.015L100,450.015c0-27.614-22.386-50-50-50C50,427.628,72.385,450.015,100,450.015z"/>
	<path fill="#8CCAF4" d="M50,500.015L50,500.015c0-27.614-22.386-50-50-50C0,477.628,22.385,500.015,50,500.015z"/>
	<path fill="#8BF78B" d="M49.999,400.015H0v50C0,422.4,22.386,400.015,49.999,400.015z"/>
	<path fill="#8BF78B" d="M50.001,500.015H100v-50C100,477.629,77.614,500.015,50.001,500.015z"/>
	<path fill="#8BF78B" d="M0,450.016v49.999h50C22.386,500.015,0,477.629,0,450.016z"/>
	<path fill="#8BF78B" d="M100,450.014v-49.999H50C77.614,400.015,100,422.4,100,450.014z"/>
	<path fill="#F48CC0" d="M100,449.999L100,449.999L100,449.999L100,449.999 M50.001,400 M0.001,450.001
		c27.607,0,49.989,22.375,49.999,49.979C50.011,472.375,72.393,450,99.999,450H100c-27.615-0.001-49.999-22.388-49.999-50H50
		C50,427.615,27.613,450,0.001,450.001L0.001,450.001 M50.001,500.001L50.001,500.001c0-0.008-0.001-0.014-0.001-0.021
		C50,499.987,50,499.993,50.001,500.001"/>
	<path fill="#8CCAF4" d="M150,400.015L150,400.015c-27.614,0-50,22.386-50,50C127.613,450.015,150,427.63,150,400.015z"/>
	<path fill="#8CCAF4" d="M200,450.015L200,450.015c-27.614,0-50,22.386-50,50C177.613,500.015,200,477.63,200,450.015z"/>
	<path fill="#8CCAF4" d="M200,450.015L200,450.015c0-27.614-22.386-50-50-50C150,427.628,172.385,450.015,200,450.015z"/>
	<path fill="#8CCAF4" d="M150,500.015L150,500.015c0-27.614-22.386-50-50-50C100,477.628,122.385,500.015,150,500.015z"/>
	<path fill="#8BF78B" d="M149.999,400.015H100v50C100,422.4,122.386,400.015,149.999,400.015z"/>
	<path fill="#8BF78B" d="M150.001,500.015H200v-50C200,477.629,177.614,500.015,150.001,500.015z"/>
	<path fill="#8BF78B" d="M100,450.016v49.999h50C122.386,500.015,100,477.629,100,450.016z"/>
	<path fill="#8BF78B" d="M200,450.014v-49.999h-50C177.614,400.015,200,422.4,200,450.014z"/>
	<path fill="#F48CC0" d="M200,449.999L200,449.999L200,449.999L200,449.999 M150.001,400 M100.001,450.001
		c27.607,0,49.989,22.375,49.999,49.979c0.011-27.605,22.393-49.98,49.999-49.98H200c-27.615-0.001-49.999-22.388-49.999-50H150
		C150,427.615,127.613,450,100.001,450.001L100.001,450.001 M150.001,500.001L150.001,500.001c0-0.008-0.001-0.014-0.001-0.021
		C150,499.987,150,499.993,150.001,500.001"/>
	<path fill="#8CCAF4" d="M250,400.015L250,400.015c-27.614,0-50,22.386-50,50C227.613,450.015,250,427.63,250,400.015z"/>
	<path fill="#8CCAF4" d="M300,450.015L300,450.015c-27.614,0-50,22.386-50,50C277.613,500.015,300,477.63,300,450.015z"/>
	<path fill="#8CCAF4" d="M300,450.015L300,450.015c0-27.614-22.386-50-50-50C250,427.628,272.385,450.015,300,450.015z"/>
	<path fill="#8CCAF4" d="M250,500.015L250,500.015c0-27.614-22.386-50-50-50C200,477.628,222.385,500.015,250,500.015z"/>
	<path fill="#8BF78B" d="M249.999,400.015H200v50C200,422.4,222.386,400.015,249.999,400.015z"/>
	<path fill="#8BF78B" d="M250.001,500.015H300v-50C300,477.629,277.614,500.015,250.001,500.015z"/>
	<path fill="#8BF78B" d="M200,450.016v49.999h50C222.386,500.015,200,477.629,200,450.016z"/>
	<path fill="#8BF78B" d="M300,450.014v-49.999h-50C277.614,400.015,300,422.4,300,450.014z"/>
	<path fill="#F48CC0" d="M300,449.999L300,449.999L300,449.999L300,449.999 M250.001,400 M200.001,450.001
		c27.607,0,49.989,22.375,49.999,49.979c0.011-27.605,22.393-49.98,49.999-49.98H300c-27.615-0.001-49.999-22.388-49.999-50H250
		C250,427.615,227.613,450,200.001,450.001L200.001,450.001 M250.001,500.001L250.001,500.001c0-0.008-0.001-0.014-0.001-0.021
		C250,499.987,250,499.993,250.001,500.001"/>
	<path fill="#8CCAF4" d="M350,400.015L350,400.015c-27.614,0-50,22.386-50,50C327.613,450.015,350,427.63,350,400.015z"/>
	<path fill="#8CCAF4" d="M400,450.015L400,450.015c-27.614,0-50,22.386-50,50C377.613,500.015,400,477.63,400,450.015z"/>
	<path fill="#8CCAF4" d="M400,450.015L400,450.015c0-27.614-22.386-50-50-50C350,427.628,372.385,450.015,400,450.015z"/>
	<path fill="#8CCAF4" d="M350,500.015L350,500.015c0-27.614-22.386-50-50-50C300,477.628,322.385,500.015,350,500.015z"/>
	<path fill="#8BF78B" d="M349.999,400.015H300v50C300,422.4,322.386,400.015,349.999,400.015z"/>
	<path fill="#8BF78B" d="M350.001,500.015H400v-50C400,477.629,377.614,500.015,350.001,500.015z"/>
	<path fill="#8BF78B" d="M300,450.016v49.999h50C322.386,500.015,300,477.629,300,450.016z"/>
	<path fill="#8BF78B" d="M400,450.014v-49.999h-50C377.614,400.015,400,422.4,400,450.014z"/>
	<path fill="#F48CC0" d="M400,449.999L400,449.999L400,449.999L400,449.999 M350.001,400 M300.001,450.001
		c27.607,0,49.989,22.375,49.999,49.979c0.011-27.605,22.393-49.98,49.999-49.98H400c-27.615-0.001-49.999-22.388-49.999-50H350
		C350,427.615,327.613,450,300.001,450.001L300.001,450.001 M350.001,500.001L350.001,500.001c0-0.008-0.001-0.014-0.001-0.021
		C350,499.987,350,499.993,350.001,500.001"/>
	<path fill="#8CCAF4" d="M450,400.015L450,400.015c-27.614,0-50,22.386-50,50C427.613,450.015,450,427.63,450,400.015z"/>
	<path fill="#8CCAF4" d="M500,450.015L500,450.015c-27.614,0-50,22.386-50,50C477.613,500.015,500,477.63,500,450.015z"/>
	<path fill="#8CCAF4" d="M500,450.015L500,450.015c0-27.614-22.386-50-50-50C450,427.628,472.385,450.015,500,450.015z"/>
	<path fill="#8CCAF4" d="M450,500.015L450,500.015c0-27.614-22.386-50-50-50C400,477.628,422.385,500.015,450,500.015z"/>
	<path fill="#8BF78B" d="M449.999,400.015H400v50C400,422.4,422.386,400.015,449.999,400.015z"/>
	<path fill="#8BF78B" d="M450.001,500.015H500v-50C500,477.629,477.614,500.015,450.001,500.015z"/>
	<path fill="#8BF78B" d="M400,450.016v49.999h50C422.386,500.015,400,477.629,400,450.016z"/>
	<path fill="#8BF78B" d="M500,450.014v-49.999h-50C477.614,400.015,500,422.4,500,450.014z"/>
	<path fill="#F48CC0" d="M500,449.999L500,449.999L500,449.999L500,449.999 M450.001,400 M400.001,450.001
		c27.607,0,49.989,22.375,49.999,49.979c0.011-27.605,22.393-49.98,49.999-49.98H500c-27.615-0.001-49.999-22.388-49.999-50H450
		C450,427.615,427.613,450,400.001,450.001L400.001,450.001 M450.001,500.001L450.001,500.001c0-0.008-0.001-0.014-0.001-0.021
		C450,499.987,450,499.993,450.001,500.001"/>
	<path fill="#8CCAF4" d="M550,400.015L550,400.015c-27.614,0-50,22.386-50,50C527.613,450.015,550,427.63,550,400.015z"/>
	<path fill="#8CCAF4" d="M600,450.015L600,450.015c-27.614,0-50,22.386-50,50C577.613,500.015,600,477.63,600,450.015z"/>
	<path fill="#8CCAF4" d="M600,450.015L600,450.015c0-27.614-22.386-50-50-50C550,427.628,572.385,450.015,600,450.015z"/>
	<path fill="#8CCAF4" d="M550,500.015L550,500.015c0-27.614-22.386-50-50-50C500,477.628,522.385,500.015,550,500.015z"/>
	<path fill="#8BF78B" d="M549.999,400.015H500v50C500,422.4,522.386,400.015,549.999,400.015z"/>
	<path fill="#8BF78B" d="M550.001,500.015H600v-50C600,477.629,577.614,500.015,550.001,500.015z"/>
	<path fill="#8BF78B" d="M500,450.016v49.999h50C522.386,500.015,500,477.629,500,450.016z"/>
	<path fill="#8BF78B" d="M600,450.014v-49.999h-50C577.614,400.015,600,422.4,600,450.014z"/>
	<path fill="#F48CC0" d="M600,449.999L600,449.999L600,449.999L600,449.999 M550.001,400 M500.001,450.001
		c27.607,0,49.989,22.375,49.999,49.979c0.011-27.605,22.393-49.98,49.999-49.98H600c-27.615-0.001-49.999-22.388-49.999-50H550
		C550,427.615,527.613,450,500.001,450.001L500.001,450.001 M550.001,500.001L550.001,500.001c0-0.008-0.001-0.014-0.001-0.021
		C550,499.987,550,499.993,550.001,500.001"/>
	<path fill="#8CCAF4" d="M650,400.015L650,400.015c-27.614,0-50,22.386-50,50C627.613,450.015,650,427.63,650,400.015z"/>
	<path fill="#8CCAF4" d="M700,450.015L700,450.015c-27.614,0-50,22.386-50,50C677.613,500.015,700,477.63,700,450.015z"/>
	<path fill="#8CCAF4" d="M700,450.015L700,450.015c0-27.614-22.386-50-50-50C650,427.628,672.385,450.015,700,450.015z"/>
	<path fill="#8CCAF4" d="M650,500.015L650,500.015c0-27.614-22.386-50-50-50C600,477.628,622.385,500.015,650,500.015z"/>
	<path fill="#8BF78B" d="M649.999,400.015H600v50C600,422.4,622.386,400.015,649.999,400.015z"/>
	<path fill="#8BF78B" d="M650.001,500.015H700v-50C700,477.629,677.614,500.015,650.001,500.015z"/>
	<path fill="#8BF78B" d="M600,450.016v49.999h50C622.386,500.015,600,477.629,600,450.016z"/>
	<path fill="#8BF78B" d="M700,450.014v-49.999h-50C677.614,400.015,700,422.4,700,450.014z"/>
	<path fill="#F48CC0" d="M700,449.999L700,449.999L700,449.999L700,449.999 M650.001,400 M600.001,450.001
		c27.607,0,49.989,22.375,49.999,49.979c0.011-27.605,22.393-49.98,49.999-49.98H700c-27.615-0.001-49.999-22.388-49.999-50H650
		C650,427.615,627.613,450,600.001,450.001L600.001,450.001 M650.001,500.001L650.001,500.001c0-0.008-0.001-0.014-0.001-0.021
		C650,499.987,650,499.993,650.001,500.001"/>
	<path fill="#8CCAF4" d="M750,400.015L750,400.015c-27.614,0-50,22.386-50,50C727.613,450.015,750,427.63,750,400.015z"/>
	<path fill="#8CCAF4" d="M800,450.015L800,450.015c-27.614,0-50,22.386-50,50C777.613,500.015,800,477.63,800,450.015z"/>
	<path fill="#8CCAF4" d="M800,450.015L800,450.015c0-27.614-22.386-50-50-50C750,427.628,772.385,450.015,800,450.015z"/>
	<path fill="#8CCAF4" d="M750,500.015L750,500.015c0-27.614-22.386-50-50-50C700,477.628,722.385,500.015,750,500.015z"/>
	<path fill="#8BF78B" d="M749.999,400.015H700v50C700,422.4,722.386,400.015,749.999,400.015z"/>
	<path fill="#8BF78B" d="M750.001,500.015H800v-50C800,477.629,777.614,500.015,750.001,500.015z"/>
	<path fill="#8BF78B" d="M700,450.016v49.999h50C722.386,500.015,700,477.629,700,450.016z"/>
	<path fill="#8BF78B" d="M800,450.014v-49.999h-50C777.614,400.015,800,422.4,800,450.014z"/>
	<path fill="#F48CC0" d="M800,449.999L800,449.999L800,449.999L800,449.999 M750.001,400 M700.001,450.001
		c27.607,0,49.989,22.375,49.999,49.979c0.011-27.605,22.393-49.98,49.999-49.98H800c-27.615-0.001-49.999-22.388-49.999-50H750
		C750,427.615,727.613,450,700.001,450.001L700.001,450.001 M750.001,500.001L750.001,500.001c0-0.008-0.001-0.014-0.001-0.021
		C750,499.987,750,499.993,750.001,500.001"/>
	<path fill="#8CCAF4" d="M50,500.015L50,500.015c-27.614,0-50,22.386-50,50C27.613,550.015,50,527.63,50,500.015z"/>
	<path fill="#8CCAF4" d="M100,550.015L100,550.015c-27.614,0-50,22.386-50,50C77.613,600.015,100,577.63,100,550.015z"/>
	<path fill="#8CCAF4" d="M100,550.015L100,550.015c0-27.614-22.386-50-50-50C50,527.628,72.385,550.015,100,550.015z"/>
	<path fill="#8CCAF4" d="M50,600.015L50,600.015c0-27.614-22.386-50-50-50C0,577.628,22.385,600.015,50,600.015z"/>
	<path fill="#8BF78B" d="M49.999,500.015H0v50C0,522.4,22.386,500.015,49.999,500.015z"/>
	<path fill="#8BF78B" d="M50.001,600.015H100v-50C100,577.629,77.614,600.015,50.001,600.015z"/>
	<path fill="#8BF78B" d="M0,550.016v49.999h50C22.386,600.015,0,577.629,0,550.016z"/>
	<path fill="#8BF78B" d="M100,550.014v-49.999H50C77.614,500.015,100,522.4,100,550.014z"/>
	<path fill="#F48CC0" d="M100,549.999L100,549.999L100,549.999L100,549.999 M50.001,500 M0.001,550.001
		c27.607,0,49.989,22.375,49.999,49.979C50.011,572.375,72.393,550,99.999,550H100c-27.615-0.001-49.999-22.388-49.999-50H50
		C50,527.615,27.613,550,0.001,550.001L0.001,550.001 M50.001,600.001L50.001,600.001c0-0.008-0.001-0.014-0.001-0.021
		C50,599.987,50,599.993,50.001,600.001"/>
	<path fill="#8CCAF4" d="M150,500.015L150,500.015c-27.614,0-50,22.386-50,50C127.613,550.015,150,527.63,150,500.015z"/>
	<path fill="#8CCAF4" d="M200,550.015L200,550.015c-27.614,0-50,22.386-50,50C177.613,600.015,200,577.63,200,550.015z"/>
	<path fill="#8CCAF4" d="M200,550.015L200,550.015c0-27.614-22.386-50-50-50C150,527.628,172.385,550.015,200,550.015z"/>
	<path fill="#8CCAF4" d="M150,600.015L150,600.015c0-27.614-22.386-50-50-50C100,577.628,122.385,600.015,150,600.015z"/>
	<path fill="#8BF78B" d="M149.999,500.015H100v50C100,522.4,122.386,500.015,149.999,500.015z"/>
	<path fill="#8BF78B" d="M150.001,600.015H200v-50C200,577.629,177.614,600.015,150.001,600.015z"/>
	<path fill="#8BF78B" d="M100,550.016v49.999h50C122.386,600.015,100,577.629,100,550.016z"/>
	<path fill="#8BF78B" d="M200,550.014v-49.999h-50C177.614,500.015,200,522.4,200,550.014z"/>
	<path fill="#F48CC0" d="M200,549.999L200,549.999L200,549.999L200,549.999 M150.001,500 M100.001,550.001
		c27.607,0,49.989,22.375,49.999,49.979c0.011-27.605,22.393-49.98,49.999-49.98H200c-27.615-0.001-49.999-22.388-49.999-50H150
		C150,527.615,127.613,550,100.001,550.001L100.001,550.001 M150.001,600.001L150.001,600.001c0-0.008-0.001-0.014-0.001-0.021
		C150,599.987,150,599.993,150.001,600.001"/>
	<path fill="#8CCAF4" d="M250,500.015L250,500.015c-27.614,0-50,22.386-50,50C227.613,550.015,250,527.63,250,500.015z"/>
	<path fill="#8CCAF4" d="M300,550.015L300,550.015c-27.614,0-50,22.386-50,50C277.613,600.015,300,577.63,300,550.015z"/>
	<path fill="#8CCAF4" d="M300,550.015L300,550.015c0-27.614-22.386-50-50-50C250,527.628,272.385,550.015,300,550.015z"/>
	<path fill="#8CCAF4" d="M250,600.015L250,600.015c0-27.614-22.386-50-50-50C200,577.628,222.385,600.015,250,600.015z"/>
	<path fill="#8BF78B" d="M249.999,500.015H200v50C200,522.4,222.386,500.015,249.999,500.015z"/>
	<path fill="#8BF78B" d="M250.001,600.015H300v-50C300,577.629,277.614,600.015,250.001,600.015z"/>
	<path fill="#8BF78B" d="M200,550.016v49.999h50C222.386,600.015,200,577.629,200,550.016z"/>
	<path fill="#8BF78B" d="M300,550.014v-49.999h-50C277.614,500.015,300,522.4,300,550.014z"/>
	<path fill="#F48CC0" d="M300,549.999L300,549.999L300,549.999L300,549.999 M250.001,500 M200.001,550.001
		c27.607,0,49.989,22.375,49.999,49.979c0.011-27.605,22.393-49.98,49.999-49.98H300c-27.615-0.001-49.999-22.388-49.999-50H250
		C250,527.615,227.613,550,200.001,550.001L200.001,550.001 M250.001,600.001L250.001,600.001c0-0.008-0.001-0.014-0.001-0.021
		C250,599.987,250,599.993,250.001,600.001"/>
	<path fill="#8CCAF4" d="M350,500.015L350,500.015c-27.614,0-50,22.386-50,50C327.613,550.015,350,527.63,350,500.015z"/>
	<path fill="#8CCAF4" d="M400,550.015L400,550.015c-27.614,0-50,22.386-50,50C377.613,600.015,400,577.63,400,550.015z"/>
	<path fill="#8CCAF4" d="M400,550.015L400,550.015c0-27.614-22.386-50-50-50C350,527.628,372.385,550.015,400,550.015z"/>
	<path fill="#8CCAF4" d="M350,600.015L350,600.015c0-27.614-22.386-50-50-50C300,577.628,322.385,600.015,350,600.015z"/>
	<path fill="#8BF78B" d="M349.999,500.015H300v50C300,522.4,322.386,500.015,349.999,500.015z"/>
	<path fill="#8BF78B" d="M350.001,600.015H400v-50C400,577.629,377.614,600.015,350.001,600.015z"/>
	<path fill="#8BF78B" d="M300,550.016v49.999h50C322.386,600.015,300,577.629,300,550.016z"/>
	<path fill="#8BF78B" d="M400,550.014v-49.999h-50C377.614,500.015,400,522.4,400,550.014z"/>
	<path fill="#F48CC0" d="M400,549.999L400,549.999L400,549.999L400,549.999 M350.001,500 M300.001,550.001
		c27.607,0,49.989,22.375,49.999,49.979c0.011-27.605,22.393-49.98,49.999-49.98H400c-27.615-0.001-49.999-22.388-49.999-50H350
		C350,527.615,327.613,550,300.001,550.001L300.001,550.001 M350.001,600.001L350.001,600.001c0-0.008-0.001-0.014-0.001-0.021
		C350,599.987,350,599.993,350.001,600.001"/>
	<path fill="#8CCAF4" d="M450,500.015L450,500.015c-27.614,0-50,22.386-50,50C427.613,550.015,450,527.63,450,500.015z"/>
	<path fill="#8CCAF4" d="M500,550.015L500,550.015c-27.614,0-50,22.386-50,50C477.613,600.015,500,577.63,500,550.015z"/>
	<path fill="#8CCAF4" d="M500,550.015L500,550.015c0-27.614-22.386-50-50-50C450,527.628,472.385,550.015,500,550.015z"/>
	<path fill="#8CCAF4" d="M450,600.015L450,600.015c0-27.614-22.386-50-50-50C400,577.628,422.385,600.015,450,600.015z"/>
	<path fill="#8BF78B" d="M449.999,500.015H400v50C400,522.4,422.386,500.015,449.999,500.015z"/>
	<path fill="#8BF78B" d="M450.001,600.015H500v-50C500,577.629,477.614,600.015,450.001,600.015z"/>
	<path fill="#8BF78B" d="M400,550.016v49.999h50C422.386,600.015,400,577.629,400,550.016z"/>
	<path fill="#8BF78B" d="M500,550.014v-49.999h-50C477.614,500.015,500,522.4,500,550.014z"/>
	<path fill="#F48CC0" d="M500,549.999L500,549.999L500,549.999L500,549.999 M450.001,500 M400.001,550.001
		c27.607,0,49.989,22.375,49.999,49.979c0.011-27.605,22.393-49.98,49.999-49.98H500c-27.615-0.001-49.999-22.388-49.999-50H450
		C450,527.615,427.613,550,400.001,550.001L400.001,550.001 M450.001,600.001L450.001,600.001c0-0.008-0.001-0.014-0.001-0.021
		C450,599.987,450,599.993,450.001,600.001"/>
	<path fill="#8CCAF4" d="M550,500.015L550,500.015c-27.614,0-50,22.386-50,50C527.613,550.015,550,527.63,550,500.015z"/>
	<path fill="#8CCAF4" d="M600,550.015L600,550.015c-27.614,0-50,22.386-50,50C577.613,600.015,600,577.63,600,550.015z"/>
	<path fill="#8CCAF4" d="M600,550.015L600,550.015c0-27.614-22.386-50-50-50C550,527.628,572.385,550.015,600,550.015z"/>
	<path fill="#8CCAF4" d="M550,600.015L550,600.015c0-27.614-22.386-50-50-50C500,577.628,522.385,600.015,550,600.015z"/>
	<path fill="#8BF78B" d="M549.999,500.015H500v50C500,522.4,522.386,500.015,549.999,500.015z"/>
	<path fill="#8BF78B" d="M550.001,600.015H600v-50C600,577.629,577.614,600.015,550.001,600.015z"/>
	<path fill="#8BF78B" d="M500,550.016v49.999h50C522.386,600.015,500,577.629,500,550.016z"/>
	<path fill="#8BF78B" d="M600,550.014v-49.999h-50C577.614,500.015,600,522.4,600,550.014z"/>
	<path fill="#F48CC0" d="M600,549.999L600,549.999L600,549.999L600,549.999 M550.001,500 M500.001,550.001
		c27.607,0,49.989,22.375,49.999,49.979c0.011-27.605,22.393-49.98,49.999-49.98H600c-27.615-0.001-49.999-22.388-49.999-50H550
		C550,527.615,527.613,550,500.001,550.001L500.001,550.001 M550.001,600.001L550.001,600.001c0-0.008-0.001-0.014-0.001-0.021
		C550,599.987,550,599.993,550.001,600.001"/>
	<path fill="#8CCAF4" d="M650,500.015L650,500.015c-27.614,0-50,22.386-50,50C627.613,550.015,650,527.63,650,500.015z"/>
	<path fill="#8CCAF4" d="M700,550.015L700,550.015c-27.614,0-50,22.386-50,50C677.613,600.015,700,577.63,700,550.015z"/>
	<path fill="#8CCAF4" d="M700,550.015L700,550.015c0-27.614-22.386-50-50-50C650,527.628,672.385,550.015,700,550.015z"/>
	<path fill="#8CCAF4" d="M650,600.015L650,600.015c0-27.614-22.386-50-50-50C600,577.628,622.385,600.015,650,600.015z"/>
	<path fill="#8BF78B" d="M649.999,500.015H600v50C600,522.4,622.386,500.015,649.999,500.015z"/>
	<path fill="#8BF78B" d="M650.001,600.015H700v-50C700,577.629,677.614,600.015,650.001,600.015z"/>
	<path fill="#8BF78B" d="M600,550.016v49.999h50C622.386,600.015,600,577.629,600,550.016z"/>
	<path fill="#8BF78B" d="M700,550.014v-49.999h-50C677.614,500.015,700,522.4,700,550.014z"/>
	<path fill="#F48CC0" d="M700,549.999L700,549.999L700,549.999L700,549.999 M650.001,500 M600.001,550.001
		c27.607,0,49.989,22.375,49.999,49.979c0.011-27.605,22.393-49.98,49.999-49.98H700c-27.615-0.001-49.999-22.388-49.999-50H650
		C650,527.615,627.613,550,600.001,550.001L600.001,550.001 M650.001,600.001L650.001,600.001c0-0.008-0.001-0.014-0.001-0.021
		C650,599.987,650,599.993,650.001,600.001"/>
	<path fill="#8CCAF4" d="M750,500.015L750,500.015c-27.614,0-50,22.386-50,50C727.613,550.015,750,527.63,750,500.015z"/>
	<path fill="#8CCAF4" d="M800,550.015L800,550.015c-27.614,0-50,22.386-50,50C777.613,600.015,800,577.63,800,550.015z"/>
	<path fill="#8CCAF4" d="M800,550.015L800,550.015c0-27.614-22.386-50-50-50C750,527.628,772.385,550.015,800,550.015z"/>
	<path fill="#8CCAF4" d="M750,600.015L750,600.015c0-27.614-22.386-50-50-50C700,577.628,722.385,600.015,750,600.015z"/>
	<path fill="#8BF78B" d="M749.999,500.015H700v50C700,522.4,722.386,500.015,749.999,500.015z"/>
	<path fill="#8BF78B" d="M750.001,600.015H800v-50C800,577.629,777.614,600.015,750.001,600.015z"/>
	<path fill="#8BF78B" d="M700,550.016v49.999h50C722.386,600.015,700,577.629,700,550.016z"/>
	<path fill="#8BF78B" d="M800,550.014v-49.999h-50C777.614,500.015,800,522.4,800,550.014z"/>
	<path fill="#F48CC0" d="M800,549.999L800,549.999L800,549.999L800,549.999 M750.001,500 M700.001,550.001
		c27.607,0,49.989,22.375,49.999,49.979c0.011-27.605,22.393-49.98,49.999-49.98H800c-27.615-0.001-49.999-22.388-49.999-50H750
		C750,527.615,727.613,550,700.001,550.001L700.001,550.001 M750.001,600.001L750.001,600.001c0-0.008-0.001-0.014-0.001-0.021
		C750,599.987,750,599.993,750.001,600.001"/>
</g>
</svg>
